<?xml version="1.0" encoding="utf-8"?>
<!-- Generator: Adobe Illustrator 16.0.0, SVG Export Plug-In . SVG Version: 6.00 Build 0)  -->
<!DOCTYPE svg PUBLIC "-//W3C//DTD SVG 1.1//EN" "http://www.w3.org/Graphics/SVG/1.1/DTD/svg11.dtd">
<svg version="1.1" id="图层_1" xmlns="http://www.w3.org/2000/svg" xmlns:xlink="http://www.w3.org/1999/xlink" x="0px" y="0px"
	 width="296.565px" height="298.076px" viewBox="0 0 296.565 298.076" enable-background="new 0 0 296.565 298.076"
	 xml:space="preserve">
<path fill-rule="evenodd" clip-rule="evenodd" fill="#192C57" d="M123.303,2.699C47.186,17.826-11.791,82.841,2.014,174.851
	c10.648,70.974,86.998,137.698,172.368,120.485c72.984-14.715,134.372-81.602,120.11-171.561
	C283.14,52.164,209.104-14.352,123.303,2.699L123.303,2.699z M124.617,184.556v4.326h-24.414c-0.034-1.09,0.146-2.138,0.532-3.15
	c0.626-1.656,1.631-3.296,3.013-4.901c1.382-1.605,3.356-3.46,5.923-5.563c3.992-3.288,6.704-5.89,8.12-7.812
	c1.425-1.923,2.138-3.743,2.138-5.46c0-1.794-0.644-3.305-1.931-4.541c-1.288-1.228-2.971-1.846-5.039-1.846
	c-2.189,0-3.94,0.653-5.253,1.957c-1.314,1.296-1.975,3.1-1.992,5.408l-4.635-0.464c0.317-3.467,1.519-6.111,3.597-7.931
	c2.085-1.82,4.875-2.73,8.387-2.73c3.537,0,6.344,0.979,8.404,2.945c2.068,1.965,3.099,4.403,3.099,7.305
	c0,1.477-0.3,2.927-0.91,4.353c-0.601,1.433-1.605,2.936-3.005,4.515c-1.408,1.57-3.733,3.742-6.979,6.489
	c-2.721,2.284-4.472,3.829-5.245,4.645c-0.772,0.815-1.408,1.631-1.914,2.455H124.617L124.617,184.556z M69.311,129.578
	c3.966-51.575,41.077-78.351,79.909-78.559c41.317-0.223,73.398,34.185,77.87,78.807c12.829,7.08,29.131,8.344,30.532,26.437
	c2.547,32.961-27.888,26.353-32.319,37.322c-3.178,7.865-1.668,21.179-19.679,32.188c-9.913,6.059-21.859,7.12-32.828,10.472
	c0.304,9.391-24.121,18.521-24.899-2.437c0.07-13.946,17.287-11.523,22.462-4.226c21.757-3.218,46.575-9.521,47.382-35.4
	c-3.146-6.86-4.972-2.456-6.448-11.358l0.682-47.407c2.23-7.438,4.618-3.573,1.445-14.201c-9.494-33.089-35.446-47.58-63.594-47.781
	c-24.881-0.177-50.364,13.203-62.786,38.401c-9.857,19.995-3.788,18.435-2.073,25.012c1.576,6.044,0.644,25.669,0.692,33.218
	c0.069,10.963,0.495,21.309-9.915,22.209c-6.309,0.546-6.967-2.558-12.689-4.721c-15.005-5.671-24.877-10.203-24.278-28.931
	C39.467,137.152,62.962,133.162,69.311,129.578L69.311,129.578z M146.853,188.882v-8.808h-16.018v-4.172l16.842-23.898h3.709v23.898
	h4.996v4.172h-4.996v8.808H146.853L146.853,188.882z M146.853,175.902h-11.562l11.562-16.593V175.902L146.853,175.902z
	 M165.896,188.882v-36.878h4.893v15.194h19.057v-15.194h4.894v36.878h-4.894v-17.357h-19.057v17.357H165.896z"/>
</svg>
