<?xml version="1.0" encoding="utf-8"?>
<!-- Generator: Adobe Illustrator 16.0.0, SVG Export Plug-In . SVG Version: 6.00 Build 0)  -->
<!DOCTYPE svg PUBLIC "-//W3C//DTD SVG 1.1//EN" "http://www.w3.org/Graphics/SVG/1.1/DTD/svg11.dtd">
<svg version="1.1" id="图层_1" xmlns="http://www.w3.org/2000/svg" xmlns:xlink="http://www.w3.org/1999/xlink" x="0px" y="0px"
	 width="251.164px" height="229.971px" viewBox="0 0 251.164 229.971" enable-background="new 0 0 251.164 229.971"
	 xml:space="preserve">
<path fill-rule="evenodd" clip-rule="evenodd" fill="#192C57" d="M7.999,7.999H243.97V150.98H7.999V7.999L7.999,7.999z
	 M119.51,66.991c-1.346,1.391-1.489-0.62-1.624,4.936l0.099,42.059h14.998l-0.104-44.927c-0.902-2.965,0.553-0.032-1.437-2.067
	H119.51L119.51,66.991z M116.985,50.993c0,10.833,16.998,10.51,16.998,1C133.983,40.536,116.985,42.968,116.985,50.993
	L116.985,50.993z M99.987,213.974h50.994v-31.996H99.987V213.974L99.987,213.974z M65.992,78.99c0,16.626,6.839,31.34,17.746,42.246
	c46.012,46.013,123.044-4.569,95.548-67.552c-12.102-27.719-49.31-42.739-79.311-27.699c-7.725,3.872-10.805,6.359-16.739,12.258
	C72.966,48.452,65.992,63.654,65.992,78.99L65.992,78.99z M190.976,79.99c0-51.801-57.255-84.386-102.204-54.211
	c-44.605,29.944-35.797,101.113,21.389,117.028C148.261,153.41,190.976,122.529,190.976,79.99L190.976,79.99z M62.771,229.916
	l7.22-29.941h23.997l-4,17.998h70.991l-3.999-17.998l23.775,0.056l7.221,29.94L62.771,229.916L62.771,229.916z M0,4v170.978
	c0,2.305,0.695,3,3,3h244.969c4.048,0,3.126-3.695,3.059-7.94C250.166,115.792,250.969,55.431,250.969,1c-2.243-0.522-2.3-1-5-1H4
	C1.659,0,0,1.659,0,4z"/>
</svg>
